<?xml version="1.0" encoding="utf-8"?><svg width="150" height="476" viewBox="0 0 150 476" xmlns="http://www.w3.org/2000/svg" xmlns:xlink="http://www.w3.org/1999/xlink"><svg class="asvg-icon" viewBox="0 0 22 22" width="30" height="30" id="svg--freebie"><path fill="#FCD9D7" d="M11 0C4.9 0 0 4.9 0 11s4.9 11 11 11 11-4.9 11-11S17.1 0 11 0z"/><path fill="#EE4036" d="M11 2.2c-4.9 0-8.8 3.9-8.8 8.8s3.9 8.8 8.8 8.8 8.8-3.9 8.8-8.8-3.9-8.8-8.8-8.8z"/><path fill="#FFF" d="M11.4 6.6L12.6 9c.1.1.2.2.3.2l2.7.4c.3 0 .5.5.2.7l-1.9 1.9c-.1.1-.1.2-.1.4l.5 2.7c.1.3-.3.6-.6.4l-2.4-1.3c-.1-.1-.3-.1-.4 0l-2.4 1.3c-.3.2-.7-.1-.6-.4l.5-2.7c0-.1 0-.3-.1-.4l-1.9-1.9c-.4-.2-.3-.7.1-.7l2.7-.4c.1 0 .2-.1.3-.2l1.2-2.4c.1-.3.5-.3.7 0z"/><path fill="#FFF" d="M11.4 9.3s.8-4.2 3.2-3c0 0 2 1.4-2.9 3.1 0 0 3.3-1.8 2.3-2.6-.1 0-1-.6-2.6 2.5zM11 9.2S8.7 5.6 6.9 7.6c0 0-1.3 2.1 3.8 1.8 0 0-3.8-.4-3.1-1.6.1.1.8-.8 3.4 1.4zM7.2 12.2h7.6V16H7.2zM6.7 9.8h8.6v2.1H6.7z"/></svg><svg class="bsvg-icon" viewBox="0 0 180.5 40" width="150" height="40" id="svg--hkmoblogo" y="30"><path fill="#4A8FCC" d="M95.5 40c-11 0-20-9-20-20s9-20 20-20 20 9 20 20-9 20-20 20zm0-38.8C85.1 1.2 76.7 9.6 76.7 20s8.4 18.8 18.8 18.8 18.8-8.4 18.8-18.8c-.1-10.4-8.5-18.8-18.8-18.8z"/><path fill="#162D40" d="M10.5 27.6v-7.3H2.9v7.3H0V11.1h2.9v6.6h7.6v-6.6h3v16.5h-3zM18.9 27.6V11.1h10.3v2.6h-7.3v4.1h5.9l.4 2.6h-6.3v4.7h7.6v2.6H18.9zM35 27.6h-2.9l6.5-16.7H42l6.5 16.4-2.9.7-1.6-4.4h-7.3l-1.7 4zm5.3-13.9l-2.7 7.2H43l-2.7-7.2zM52.1 27.6V11.1H55v14h6.3l.4 2.5h-9.6zM70.4 13.7v13.9h-3V13.7h-5.2v-2.6h13.2l.4 2.6h-5.4zM91.7 27.6v-7.3h-7.6v7.3h-2.9V11.1h2.9v6.6h7.6v-6.6h3v16.5h-3zM108.8 27.9l-7.3-8.3v8h-2.9V11.1h2.9v7.4l6.5-7.4h3.4l-6.9 7.8 7.4 8.4-3.1.6zM117.5 27.6h-2.9l6.5-16.7h3.3l6.5 16.4-2.9.7-1.6-4.4H119l-1.5 4zm5.2-13.9l-2.7 7.2h5.4l-2.7-7.2zM144.1 27.8l-4.8-6.6h-1.8v6.4h-2.9V11.1h5.1c3.8 0 6.2 1.8 6.2 5.1 0 2.4-1.4 4-3.5 4.7l4.7 6.3-3 .6zm-4.5-14.2h-2.2v5.3h2.2c2.1 0 3.3-1 3.3-2.7.1-1.7-1.1-2.6-3.3-2.6zM157.1 13.7v13.9h-3V13.7h-5.2v-2.6h13.2l.4 2.6h-5.4z"/></svg><svg class="csvg-icon" width="18" height="18" viewBox="0 0 24 24" id="svg--loader" y="70"><path fill="#1B87C9" d="M12 6v3l4-4-4-4v3c-4.42 0-8 3.58-8 8 0 1.57.46 3.03 1.24 4.26L6.7 14.8A5.87 5.87 0 0 1 6 12c0-3.31 2.69-6 6-6zm6.76 1.74L17.3 9.2c.44.84.7 1.79.7 2.8 0 3.31-2.69 6-6 6v-3l-4 4 4 4v-3c4.42 0 8-3.58 8-8 0-1.57-.46-3.03-1.24-4.26z"/><path fill="none" d="M0 0h24v24H0z"/></svg><svg class="dsvg-icon" viewBox="0 0 24 24" width="18" height="18" id="svg--location" y="88"><path fill="#1B87C9" d="M12 2C8 2 4.7 5.3 4.7 9.3S12 22 12 22s7.3-8.7 7.3-12.7S16 2 12 2zm0 12.1c-2.7 0-4.9-2.2-4.9-4.9S9.3 4.3 12 4.3s4.9 2.2 4.9 4.9-2.2 4.9-4.9 4.9z"/></svg><svg class="esvg-icon" width="18" height="18" viewBox="0 0 24 24" id="svg--mob" y="106"><path fill="none" d="M0 0h24v24H0z"/><path fill="#1B87C9" d="M17 1.01L7 1c-1.1 0-1.99.9-1.99 2v18c0 1.1.89 2 1.99 2h10c1.1 0 2-.9 2-2V3c0-1.1-.9-1.99-2-1.99zM17 19H7V5h10v14z"/></svg><svg class="fsvg-icon" width="18" height="18" viewBox="0 0 24 24" id="svg--telephone" y="124"><path fill="none" d="M0 0h24v24H0z"/><path fill="#1B87C9" d="M6.62 10.79c1.44 2.83 3.76 5.14 6.59 6.59l2.2-2.2c.27-.27.67-.36 1.02-.24 1.12.37 2.33.57 3.57.57.55 0 1 .45 1 1V20c0 .55-.45 1-1 1-9.39 0-17-7.61-17-17 0-.55.45-1 1-1h3.5c.55 0 1 .45 1 1 0 1.25.2 2.45.57 3.57.11.35.03.74-.25 1.02l-2.2 2.2z"/></svg><svg viewBox="-515 937 54 54" width="30" height="30" id="svg--zautoFill_1" y="142"><path fill="none" d="M-467 985h-48v-48h48v48z"/><path fill="gray" d="M-505 947v20h4v-13.2l23.2 23.2 2.8-2.8-23.2-23.2h13.2v-4h-20z"/></svg><svg class="hsvg-icon" viewBox="624 384 32 32" width="12" height="12" id="svg--zblueArr_1" y="172"><path fill="#1b87c9" d="M624.5 395l14.6 12.2c.3.2.6.3.9.3.3 0 .6-.1.9-.3l14.6-12.2c.6-.5.7-1.4.2-2-.5-.6-1.4-.7-2-.2L640 404.2l-13.7-11.4c-.6-.5-1.5-.4-2 .2-.5.6-.4 1.5.2 2z"/></svg><svg viewBox="0 0 24 24" width="24" height="24" id="svg--zcart_1" y="184"><path fill="#162D40" d="M7.2 19.2c-1.3 0-2.4 1.1-2.4 2.4 0 1.3 1.1 2.4 2.4 2.4s2.4-1.1 2.4-2.4c0-1.3-1.1-2.4-2.4-2.4zM0 0v2.4h2.4l4.3 9.1-1.6 2.9c-.2.3-.3.7-.3 1.2 0 1.3 1.1 2.4 2.4 2.4h14.4v-2.4H7.7c-.2 0-.3-.1-.3-.3v-.1l1.1-2h8.9c.9 0 1.7-.5 2.1-1.2l4.3-7.8c.2-.2.2-.4.2-.6 0-.7-.5-1.2-1.2-1.2H5.1L3.9 0H0zm19.2 19.2c-1.3 0-2.4 1.1-2.4 2.4 0 1.3 1.1 2.4 2.4 2.4 1.3 0 2.4-1.1 2.4-2.4 0-1.3-1.1-2.4-2.4-2.4z"/></svg><svg class="jsvg-icon" viewBox="0 0 24 24" width="50" height="50" id="svg--zcloseIcon_1" y="208"><path fill="#fff" stroke="#434343" stroke-width=".1" d="M19 6.41L17.59 5 12 10.59 6.41 5 5 6.41 10.59 12 5 17.59 6.41 19 12 13.41 17.59 19 19 17.59 13.41 12z"/><path fill="none" stroke="#434343" stroke-width=".1" d="M0 0h24v24H0z"/></svg><svg class="ksvg-icon" viewBox="0 0 48 48" width="16" height="14" id="svg--zdownloadIcon_1" y="258"><path fill="#38A4DD" d="M43.8 16.9H32.5V0h-17v16.9H4.2L24 36.7l19.8-19.8zM4.2 42.4V48h39.5v-5.6H4.2z"/></svg><svg class="lsvg-icon" viewBox="0 0 48 48" width="20" height="20" id="svg--zfreeshipping_1" y="272"><path fill="gray" d="M36.7 15.3c0-.1 0-.1-.1-.2 0-.1-.1-.1-.1-.1s0-.1-.1-.1l-.1-.1-4.3-4.5c-.2-.1-.4-.2-.6-.2H19.1c-.2 0-.4.1-.6.2L14 14.8l-.1.1-.1.1c0 .1-.1.1-.1.1s0 .1-.1.1V34.3c0 .4.4.9.8.9h3.2c.1 0 .2 0 .2-.1.3 1.6 1.7 2.9 3.4 2.9s3.1-1.2 3.3-2.8h13.4c.3 1.6 1.7 2.8 3.3 2.8s3.1-1.2 3.3-2.8H47c.4 0 .8-.4.8-.9v-8.9c0-2.2-.7-4.1-1.8-5.4a6.42 6.42 0 0 0-4.6-1.9h-4.7v-2.6-.2zm-10.8-3.5H31l2.8 2.8h-7.9v-2.8zm-6.5 0h4.8v2.8h-7.6l2.8-2.8zm1.9 24.5c-.9 0-1.7-.8-1.7-1.6s.8-1.6 1.7-1.6 1.7.8 1.7 1.6-.8 1.6-1.7 1.6zM35 18.9v14.6H24.7c-.1 0-.2 0-.2.1-.4-1.4-1.7-2.3-3.2-2.3s-2.8 1-3.2 2.3c-.1-.1-.3-.1-.4-.1h-2.3V16.3H35v2.6zm6.1 17.4c-.9 0-1.7-.8-1.7-1.6s.8-1.6 1.7-1.6 1.7.8 1.7 1.6-.8 1.6-1.7 1.6zm.3-16.5c2.9 0 4.7 2.1 4.7 5.6v8h-1.8c-.4-1.3-1.7-2.2-3.2-2.2-1.4 0-2.7.9-3.2 2.2h-1.2V19.8h4.7zm-36.8-.4h6.6c.4 0 .8.4.8.9 0 .4-.4.9-.8.9H4.6c-.4 0-.8-.4-.8-.9s.4-.9.8-.9zM.1 24.9c0-.5.4-.9.9-.9h10.2c.4 0 .8.4.8.9 0 .4-.4.9-.8.9H1c-.5-.1-.9-.4-.9-.9zM12 29.5c0 .4-.4.9-.8.9H4.6c-.4 0-.8-.4-.8-.9s.4-.9.8-.9h6.6c.5.1.8.4.8.9zm7.6-4.5c0-.4.4-.9.8-.9H27L25.9 23c-.3-.4-.3-.9 0-1.2.3-.4.9-.4 1.2 0l2.6 2.6.1.1s0 .1.1.1c0 .1.1.1.1.1s0 .1.1.1v.4c0 .1 0 .1-.1.1 0 .1-.1.1-.1.1s0 .1-.1.1l-.1.1-2.7 2.6c-.2.1-.4.2-.6.2s-.4-.1-.6-.2c-.3-.4-.3-.9 0-1.2l1.3-1.3h-6.6c-.5.1-.9-.3-.9-.7z"/></svg><svg viewBox="0 0 48 48" width="35" height="40" id="svg--zgoTop_1" y="292"><circle fill="#767676" cx="24" cy="24" r="24"/><text transform="translate(13.711 37.011)" fill="#FFF" font-family="'ClearSans'" font-size="14">Top</text><path fill="none" stroke="#FFF" stroke-miterlimit="10" d="M30.5 25.2l-6.2-5.9-6.1 5.9"/><path opacity=".5" fill="none" stroke="#FFF" stroke-miterlimit="10" d="M30.4 18.7l-6.2-5.9-6.1 5.9"/><path opacity=".1" fill="none" stroke="#FFF" stroke-miterlimit="10" d="M30.5 12.2l-6.2-5.8-6.1 5.8"/></svg><svg class="nsvg-icon" viewBox="0 0 24 24" width="26" height="26" id="svg--zmobSearch_1" y="332"><path fill="#fff" d="M15.5 14h-.79l-.28-.27A6.471 6.471 0 0 0 16 9.5 6.5 6.5 0 1 0 9.5 16c1.61 0 3.09-.59 4.23-1.57l.27.28v.79l5 4.99L20.49 19l-4.99-5zm-6 0C7.01 14 5 11.99 5 9.5S7.01 5 9.5 5 14 7.01 14 9.5 11.99 14 9.5 14z"/><path fill="none" d="M0 0h24v24H0z"/></svg><svg class="osvg-icon" viewBox="0 0 48 48" width="36" height="36" id="svg--zofferTag" y="358"><path fill="#DDF4D9" d="M24 0C10.7 0 0 10.7 0 24s10.7 24 24 24 24-10.7 24-24S37.3 0 24 0z"/><path fill="#54CA41" d="M24 4.8C13.4 4.8 4.8 13.4 4.8 24S13.4 43.2 24 43.2 43.2 34.6 43.2 24 34.6 4.8 24 4.8z"/><path fill="#FFF" d="M33.2 17.3l-1.7-.4v.1l-.1-.1-.6-.1-2.6-.8c-.3-.1-.6 0-.9.1l-3.9 2.3-.6.3-8.6 5.3c-.6.4-.8 1.2-.4 1.8l3.6 6c.4.6 1.1.8 1.8.4l13.1-7.8c.2-.1.4-.4.5-.7l1.3-5c.1-.7-.3-1.3-.9-1.4zM30 22.4c-.9.5-2.1.2-2.6-.7-.5-.9-.2-2.1.7-2.6.9-.5 2.1-.2 2.6.7s.2 2-.7 2.6z"/></svg>
<svg class="psvg-icon" viewBox="624 384 32 32" width="16" x="10" height="16" id="svg--zrightAr" y="400"><path fill="#c2c2c2" d="M635 415.5l12.2-14.6c.2-.3.3-.6.3-.9 0-.3-.1-.6-.3-.9L635 384.5c-.5-.6-1.4-.7-2-.2-.6.5-.7 1.4-.2 2l11.4 13.7-11.4 13.7c-.5.6-.4 1.5.2 2 .6.5 1.5.4 2-.2z"/></svg>
<svg class="qsvg-icon" viewBox="624 384 32 32" width="12" height="12" id="svg--zrightArrg" y="405">
<path fill="gray" d="M635 415.5l12.2-14.6c.2-.3.3-.6.3-.9 0-.3-.1-.6-.3-.9L635 384.5c-.5-.6-1.4-.7-2-.2-.6.5-.7 1.4-.2 2l11.4 13.7-11.4 13.7c-.5.6-.4 1.5.2 2 .6.5 1.5.4 2-.2z"/>
</svg><svg class="rsvg-icon" viewBox="624 384 32 32" width="12" height="12" id="svg--zupblueArr_1" y="416" x="15">
<path fill="#1b87c9" d="M655.5 405l-14.6-12.2c-.3-.2-.6-.3-.9-.3-.3 0-.6.1-.9.3L624.5 405c-.6.5-.7 1.4-.2 2 .5.6 1.4.7 2 .2l13.7-11.4 13.7 11.4c.6.5 1.5.4 2-.2.5-.6.4-1.5-.2-2z"/></svg>
<svg class="ssvg-icon" viewBox="0 0 24 24" width="18" height="18" id="svg--zuser_1" y="426">
<path fill="#A7A9AC" d="M17 7c0 2.8-2.2 5-5 5S7 9.8 7 7s2.2-5 5-5 5 2.2 5 5zM2 20.3c0-3.3 6.7-5.2 10-5.2s10 1.8 10 5.2V22H2v-1.7z"/></svg>
<svg class="tsvg-icon" viewBox="0 0 24 24" width="18" height="18" id="svg--zuser_2" y="443">
<path fill="#fff" d="M12.1 0C5.5 0 .1 5.4.1 12s5.4 12 12 12 12-5.4 12-12-5.4-12-12-12z"/>
<path d="M12.1 15.1c-2.6 0-7.9 1.3-7.9 3.9v1.5c2.1 1.8 4.9 3 7.9 3s5.8-1.1 7.9-3V19c-.1-2.5-5.3-3.9-7.9-3.9z"/>
<circle cx="12.1" stroke="#ccc" cy="9.3" r="3.9"/></svg>
<svg class="usvg-icon" viewBox="0 0 24 24" width="18" height="18" id="svg--zwhitecash" y="438" x="30">
<path fill="#fff" d="M20.9 6H4.1s-1.3-.3-1.3-1l18.4-1.8V1.7S21 .3 18.9.7L2.5 3.5s-2 .3-2 2.8v14.6c0 1.4 1.1 2.6 2.6 2.6H21c1.4 0 2.6-1.1 2.6-2.6V8.6C23.5 7.2 22.4 6 20.9 6zm-1.5 10.5c-1 0-1.8-.8-1.8-1.8s.8-1.8 1.8-1.8 1.8.8 1.8 1.8-.8 1.8-1.8 1.8z"/>
<path fill="#38A4DC" d="M9.1 19.9c-2.8 0-5-2.3-5-5 0-2.8 2.3-5 5-5 2.8 0 5 2.3 5 5 .1 2.7-2.2 5-5 5zm0-9.7c-2.6 0-4.7 2.1-4.7 4.7s2.1 4.7 4.7 4.7 4.7-2.1 4.7-4.7-2.1-4.7-4.7-4.7z"/>
<path fill="#38A4DC" d="M8.2 16.8V15H6.3v1.8h-.8v-4.2h.7v1.7h1.9v-1.7h.7v4.2h-.6zM12.5 16.9l-1.8-2.1v2h-.8v-4.2h.7v1.9l1.6-1.9h.8l-1.7 2 1.9 2.1-.7.2z"/>
</svg>
</svg>